<?xml version="1.0" encoding="utf-8"?>

<!DOCTYPE svg PUBLIC "-//W3C//DTD SVG 1.1//EN" "http://www.w3.org/Graphics/SVG/1.1/DTD/svg11.dtd">
<svg version="1.1" id="Layer_1" xmlns="http://www.w3.org/2000/svg" xmlns:xlink="http://www.w3.org/1999/xlink" x="0px" y="0px"
	 viewBox="324.963 35.129 1355.092 1596.917" enable-background="new 324.963 35.129 1355.092 1596.917" xml:space="preserve">
<g>
	<path fill="#603813" stroke="#603813" d="M947.98,126.83c7.26-0.64,13.5-5.24,20.86-5.48c9.11-1.13,18.52,2.42,24.3,9.62
		c6.06-0.89,12.17-0.14,18.22,0.57c6.3-8.46,17.37-12.24,27.63-10.47c6.04,0.63,11.11,4.54,17.15,5.15
		c7.12,0.96,13.96,3.31,20.56,6.1c4.01,1.69,7.86,4.22,12.39,4.13c11.01,0.45,22.06,1.62,32.61,4.98
		c20.23,6.28,39.17,17.63,53.16,33.68c2.02,2.2,4.97,3.09,7.54,4.48c9.12,4.75,17.47,10.99,24.66,18.34
		c11.85,12.62,21.36,27.18,32.88,40.07c3.02,3.62,6.76,6.59,9.55,10.4c4.63,6.71,4.35,15.74,0.8,22.86
		c6.52,5.69,12.38,12.13,17.38,19.19c3.91,5.14,6.47,11.25,11.19,15.78c14.97,17.25,21.04,40.34,22.87,62.67
		c0.44,12.43,4.26,24.59,3.51,37.09c-0.86,5.28-1.68,10.57-2.02,15.91c-1.57,16.23-3.46,32.43-4.77,48.68
		c-1.8,18.46-0.66,37.54-6.86,55.31c-2.66,8.01-7.43,15.47-14.44,20.33c-11.29,1.64-22.27,4.86-33.37,7.33
		c-5.72-1.09-11.22-3.28-17-4.2c1.36-3.02,1.11-6.43,1.92-9.59c0.56-3.23,2.13-6.47,1.24-9.78c-1.3-5.95-1.11-12.09-2.14-18.08
		c-1-6.25-0.31-12.58-0.44-18.87c-0.13-8.74,0.52-17.51,2.32-26.07c-4.68-3.8-7.9-9.67-7.05-15.83
		c2.34-20.84,5.58-41.69,11.87-61.74c0.8-2.78,2.11-5.43,2.42-8.33c-0.47-20.45-4.67-41.48-16.26-58.69
		c-6.49-9.42-15.27-17.21-25.33-22.63c-1.26,5.45-4.02,10.74-8.73,13.94c-4.49,3.22-10.38,4.04-15.68,2.71
		c-7.4-1.87-14.88-3.54-22.5-4.14c-6.8-0.72-13.65-1.07-20.48-0.93c-2.48-0.24-4.24,1.64-5.99,3.03
		c-6.65,5.12-14.49,8.95-22.93,9.68c-9.93,1.27-19.9-1.13-29-5.03c-3.18-1.62-6.71-0.28-10.01,0.08
		c-13.59,1.97-27.24,3.73-40.97,4.14c-8.07,0.27-14.87-5.58-17.89-12.71c-1.48,0-2.95-0.01-4.41-0.02c0.02,3.33,0,6.66-0.05,10
		c-3.28,1.83-6.87,3.34-10.69,3.23c-15.46-0.43-30.8-2.64-46.09-4.87c-2.33-0.54-4.41,0.84-6.48,1.63
		c-9.37,4.04-19.99,6.61-30.1,4.06c-5.77-1.75-11.26-4.38-16.38-7.54c-6.3-4.57-14.53-4.35-21.95-4.29
		c-10.51-0.74-20.87,1.7-31,4.19c-6.56,1.71-13.98-0.22-18.63-5.21c-2.98-3.01-4.55-7.03-5.72-11.01
		c-11.04,6.09-20.87,14.67-27.54,25.43c-4.18,8.12-8.66,16.28-10.4,25.35c-2.01,9.37-3.05,18.94-3.48,28.51
		c-0.25,3.94,1.57,7.56,2.63,11.25c6.02,19.78,9.27,40.3,11.45,60.82c0.7,5.98-2.39,11.66-6.99,15.3
		c2.48,11.04,2.6,22.38,2.43,33.63c0.37,8.8-1.82,17.4-2.4,26.14c-1.8,7.68,2.09,15.1,2.14,22.81c-4.69,0.95-9.27,2.31-13.85,3.67
		c-2.81,1-5.66-0.25-8.38-0.87c-9.04-2.32-18.12-4.56-27.34-5.98c-5.04-3.53-9.22-8.24-11.91-13.78c-6.5-13.31-7.7-28.4-8.28-42.98
		c-0.31-16.42-1.91-32.78-3.78-49.08c-1.49-11.31-2.12-22.74-4.22-33.96c-0.72-10.74,1.95-21.29,3.08-31.9
		c1.2-21.61,5.79-43.85,18.3-61.93c3.23-5.05,8.03-8.93,10.77-14.32c5.81-10.35,13.96-19.16,22.98-26.8
		c-4.48-8.21-3.88-19.36,3.07-26.04c15.76-15.44,26.72-35.06,42.89-50.13c8.11-7.9,17.87-13.82,27.89-18.95
		c19.98-22.68,49.01-37.21,79.17-39.48c4.51-0.47,9.33,0.14,13.52-1.96C929.86,131.51,938.69,128.1,947.98,126.83z"/>
	<path fill="#FCB040" stroke="#FCB040" d="M1195.33,299.74c10.06,5.42,18.84,13.21,25.33,22.63c11.59,17.21,15.79,38.24,16.26,58.69
		c-0.31,2.9-1.62,5.55-2.42,8.33c-6.29,20.05-9.53,40.9-11.87,61.74c-0.85,6.16,2.37,12.03,7.05,15.83
		c-1.8,8.56-2.45,17.33-2.32,26.07c0.13,6.29-0.56,12.62,0.44,18.87c1.03,5.99,0.84,12.13,2.14,18.08c0.89,3.31-0.68,6.55-1.24,9.78
		c-0.81,3.16-0.56,6.57-1.92,9.59c-10.79-2.53-21.82-3.66-32.81-4.87c-45.66-8.95-92.74-9.04-138.81-3.32
		c-8.43,1.18-16.93,2.14-25.17,4.34c-6.61,1.47-13.38,2-20.08,2.83c-4.3,0.39-8.61,1.35-12.93,0.75c-7-0.85-14.03-1.49-20.95-2.84
		c-10.15-2.63-20.6-3.83-30.99-5.15c-44.54-5.12-89.97-4.76-134.07,3.89c-11.22,1.21-22.46,2.46-33.48,4.94
		c-0.05-7.71-3.94-15.13-2.14-22.81c0.58-8.74,2.77-17.34,2.4-26.14c0.17-11.25,0.05-22.59-2.43-33.63c4.6-3.64,7.69-9.32,6.99-15.3
		c-2.18-20.52-5.43-41.04-11.45-60.82c-1.06-3.69-2.88-7.31-2.63-11.25c0.43-9.57,1.47-19.14,3.48-28.51
		c1.74-9.07,6.22-17.23,10.4-25.35c6.67-10.76,16.5-19.34,27.54-25.43c1.17,3.98,2.74,8,5.72,11.01c4.65,4.99,12.07,6.92,18.63,5.21
		c10.13-2.49,20.49-4.93,31-4.19c7.42-0.06,15.65-0.28,21.95,4.29c5.12,3.16,10.61,5.79,16.38,7.54c10.11,2.55,20.73-0.02,30.1-4.06
		c2.07-0.79,4.15-2.17,6.48-1.63c15.29,2.23,30.63,4.44,46.09,4.87c3.82,0.11,7.41-1.4,10.69-3.23c0.05-3.34,0.07-6.67,0.05-10
		c1.46,0.01,2.93,0.02,4.41,0.02c3.02,7.13,9.82,12.98,17.89,12.71c13.73-0.41,27.38-2.17,40.97-4.14c3.3-0.36,6.83-1.7,10.01-0.08
		c9.1,3.9,19.07,6.3,29,5.03c8.44-0.73,16.28-4.56,22.93-9.68c8.85-0.2,17.68-1.03,26.47-2.1c7.62,0.6,15.1,2.27,22.5,4.14
		c5.3,1.33,11.19,0.51,15.68-2.71C1191.31,310.48,1194.07,305.19,1195.33,299.74z"/>
	<path fill="#39B54A" stroke="#39B54A" d="M1121.95,314.35c1.75-1.39,3.51-3.27,5.99-3.03c6.83-0.14,13.68,0.21,20.48,0.93
		C1139.63,313.32,1130.8,314.15,1121.95,314.35z"/>
	<path stroke="#000000" d="M1055.16,541.16c46.07-5.72,93.15-5.63,138.81,3.32c10.99,1.21,22.02,2.34,32.81,4.87
		c5.78,0.92,11.28,3.11,17,4.2c11.1-2.47,22.08-5.69,33.37-7.33c0.71,0,2.15-0.02,2.86-0.03c-0.01,1.82,0.01,3.65-0.05,5.48
		c-0.42,3.26-1.4,6.41-2.65,9.44c-4.85,9.69-14.23,16.28-24.18,19.97c-4.05,1.58-8.53,2.24-12.13,4.81
		c-4.68,3.22-8.35,8.28-8.91,14.04c-0.35,2.94-0.6,5.91-1.4,8.78c-4.78,16.67-10.51,33.75-21.73,47.31
		c-3.35,4.22-7.97,7.21-13.09,8.81c-22.54,8.56-46.68,13.22-70.83,12.68c-25.94-0.22-51.95-7.52-73.72-21.75
		c-3.34-2.28-7.18-4.25-9.2-7.92c-5.57-9.05-11.17-18.34-13.82-28.72c-1.48-4.65,0.19-9.47-0.69-14.17
		c-1.25-7.85-3.52-15.78-8.28-22.26c-3.37-4.69-8.5-8.35-14.29-9.14c-9-0.53-17.43,5.07-21.56,12.87c-4,7.53-6.54,16.09-6.38,24.65
		c1.1,9.96-4.12,19.04-8.5,27.58c-2.76,4.47-4.98,9.43-8.66,13.23c-19.1,14.18-42.14,22.77-65.76,25.29
		c-27.37,2.88-55.24-1.16-81.12-10.35c-5.06-1.94-10.59-3.45-14.42-7.53c-8.44-8.31-13.54-19.29-17.88-30.13
		c-2.57-6.52-4.64-13.22-6.52-19.97c-1.2-3.82-1.1-7.87-1.96-11.74c-2.1-7.05-8.33-12.36-15.34-14.18
		c-11.83-3.33-23.38-10.21-29.21-21.4c-1.37-3.28-2.4-6.71-2.82-10.24c-0.11-1.64-0.14-3.28-0.16-4.91
		c0.79,0.01,2.37,0.02,3.17,0.02c9.22,1.42,18.3,3.66,27.34,5.98c2.72,0.62,5.57,1.87,8.38,0.87c4.58-1.36,9.16-2.72,13.85-3.67
		c11.02-2.48,22.26-3.73,33.48-4.94c44.1-8.65,89.53-9.01,134.07-3.89c10.39,1.32,20.84,2.52,30.99,5.15
		c6.92,1.35,13.95,1.99,20.95,2.84c4.32,0.6,8.63-0.36,12.93-0.75c6.7-0.83,13.47-1.36,20.08-2.83
		C1038.23,543.3,1046.73,542.34,1055.16,541.16 M1072.5,549.73c-10.42,2.48-19.17,10.43-23.07,20.35
		c-3.02,7.22-2.59,15.18-3.36,22.82c-0.47,8.68-1.7,17.33-1.56,26.02c0.67,12.67,8.93,24.83,20.89,29.4
		c5.93,2.39,12.41,2.14,18.67,2.74c25.27,1.87,50.54,3.77,75.8,5.64c10.29,0.95,20.75-3.69,27.22-11.68
		c4.75-5.65,7.51-12.86,8.05-20.2c0.84-11.28,1.67-22.56,2.53-33.83c0.58-10.43-3.77-21.06-11.68-27.91
		c-5.26-4.58-12.04-7.38-19.01-7.74c-27.78-2.06-55.55-4.13-83.33-6.2C1079.92,548.88,1076.14,548.8,1072.5,549.73 M905.58,550.82
		c-23.19,1.76-46.4,3.39-69.58,5.22c-16.94,1.56-29.74,18.31-28.73,34.94c0.95,12.37,1.68,24.77,2.85,37.12
		c1.93,15.94,16.46,29.83,32.86,29.18c29.05-1.97,58.1-4.3,87.15-6.4c9.07-0.52,17.75-5.25,23.2-12.5
		c5.32-6.82,7.81-15.69,7.09-24.29c-0.9-11.39-1.64-22.8-2.59-34.18c-1.22-12.4-9.59-23.92-21.29-28.4
		C926.62,547.53,915.85,550.59,905.58,550.82z"/>
	<path fill="#FCB040" stroke="#FCB040" d="M1072.5,549.73c3.64-0.93,7.42-0.85,11.15-0.59c27.78,2.07,55.55,4.14,83.33,6.2
		c6.97,0.36,13.75,3.16,19.01,7.74c7.91,6.85,12.26,17.48,11.68,27.91c-0.86,11.27-1.69,22.55-2.53,33.83
		c-0.54,7.34-3.3,14.55-8.05,20.2c-6.47,7.99-16.93,12.63-27.22,11.68c-25.26-1.87-50.53-3.77-75.8-5.64
		c-6.26-0.6-12.74-0.35-18.67-2.74c-11.96-4.57-20.22-16.73-20.89-29.4c-0.14-8.69,1.09-17.34,1.56-26.02
		c0.77-7.64,0.34-15.6,3.36-22.82C1053.33,560.16,1062.08,552.21,1072.5,549.73z"/>
	<path fill="#FCB040" stroke="#FCB040" d="M905.58,550.82c10.27-0.23,21.04-3.29,30.96,0.69c11.7,4.48,20.07,16,21.29,28.4
		c0.95,11.38,1.69,22.79,2.59,34.18c0.72,8.6-1.77,17.47-7.09,24.29c-5.45,7.25-14.13,11.98-23.2,12.5
		c-29.05,2.1-58.1,4.43-87.15,6.4c-16.4,0.65-30.93-13.24-32.86-29.18c-1.17-12.35-1.9-24.75-2.85-37.12
		c-1.01-16.63,11.79-33.38,28.73-34.94C859.18,554.21,882.39,552.58,905.58,550.82z"/>
	<path fill="#FCB040" stroke="#FCB040" d="M705.92,560.88c4.16-6.2,11.59-9.61,18.99-9.25c0.42,3.53,1.45,6.96,2.82,10.24
		c-4.86,9.01-2.67,21.54,5.57,27.86c2.29,1.84,5.25,2.6,7.5,4.49c3.52,4.35,4.13,10.63,8.76,14.19c6.87,5.87,17.18,4.94,24.68,0.78
		c1.88,6.75,3.95,13.45,6.52,19.97c4.34,10.84,9.44,21.82,17.88,30.13c3.83,4.08,9.36,5.59,14.42,7.53
		c25.88,9.19,53.75,13.23,81.12,10.35c23.62-2.52,46.66-11.11,65.76-25.29c3.68-3.8,5.9-8.76,8.66-13.23
		c4.38-8.54,9.6-17.62,8.5-27.58c-0.16-8.56,2.38-17.12,6.38-24.65c4.13-7.8,12.56-13.4,21.56-12.87
		c5.79,0.79,10.92,4.45,14.29,9.14c4.76,6.48,7.03,14.41,8.28,22.26c0.88,4.7-0.79,9.52,0.69,14.17
		c2.65,10.38,8.25,19.67,13.82,28.72c2.02,3.67,5.86,5.64,9.2,7.92c21.77,14.23,47.78,21.53,73.72,21.75
		c24.15,0.54,48.29-4.12,70.83-12.68c5.12-1.6,9.74-4.59,13.09-8.81c11.22-13.56,16.95-30.64,21.73-47.31
		c4.44,2.21,9.34,3.78,14.37,3.27c5.76-0.3,11.42-3.54,14.1-8.73c1.83-3.23,2.62-7.12,5.3-9.8c2.99-2.02,6.6-3.17,9.11-5.89
		c6.84-6.8,7.87-17.95,3.74-26.45c1.25-3.03,2.23-6.18,2.65-9.44c4.58-0.05,9.35,0.57,13.23,3.21c7.35,4.53,10.63,13.2,12.32,21.28
		c1.45,6.53,0.41,13.19,0.23,19.78c0.39,21.48-2.66,43.24-10.66,63.26c-1.72,4.55-4.52,8.66-5.64,13.43
		c-2.21,8.9-7.74,16.47-13.51,23.4c-5.1,6.21-11.45,11.45-15.46,18.53c-4.32,6.84-6.46,14.93-11.66,21.24
		c-6.27,7.61-14.99,13.05-24.35,16c-6.82,24.23-14.56,48.23-24.11,71.54c-1.24,3.11-2.95,6.17-3,9.62
		c-1.33,44.7-2.88,89.4-4.2,134.1c-6.96,37.39-20.09,73.32-34.81,108.27c-15.69,36.9-33.87,72.69-53.44,107.66
		c-1.24,2.33-2.94,4.51-3.37,7.18c-2.9,3.5-6.69,6.18-9.28,9.95c-1.61,2.39-3.87,4.22-5.93,6.2
		c-12.06,11.97-24.26,23.94-34.44,37.59c-3.43,4.99-7.6,10.24-7.21,16.66c-1.76,0.81-3.82,1.49-4.66,3.42
		c-2.62,4.51-1.48,9.87-1.72,14.83c-3.59,9.08-10.85,16.43-19.21,21.3c-5.31,3.22-11.49,4.45-17.05,7.1
		c-6.46-2.52-13.32-4.29-19.04-8.38c-6.93-4.68-12.79-11.18-16.14-18.86c-0.68-4.97,0.87-10.39-1.71-15.02
		c-0.85-2.13-2.96-3.1-4.86-4.03c0.31-5.95-3.33-10.96-6.55-15.6c-9.4-12.77-20.58-24.09-31.78-35.26
		c-3.41-3.55-7.44-6.52-10.21-10.63c-2.28-3.41-6.13-5.42-8.21-8.96c-3.14-7.23-7.54-13.82-11.13-20.83
		c-20.29-37.38-39.05-75.66-54.58-115.27c-10.3-26.73-19.63-53.99-25.08-82.16c-0.98-43.29-2.88-86.56-3.87-129.85
		c2.93,7.34,4.33,15.18,7.21,22.55c11.88,33.65,33.39,63.28,59.32,87.53c34.88,32.27,76.76,56.54,121.2,73.05
		c2.63,1.08,5.59,1.74,8.3,0.5c35.08-12.7,68.36-30.48,98.19-52.91c25.58-19.23,48.4-42.49,65.39-69.71
		c13.48-21.83,23.17-46.14,27.18-71.53c-3.5,5.32-5.86,11.26-9.1,16.73c-18.3,32.29-41.25,62.31-69.78,86.22
		c-25.72,21.66-57.03,37.62-90.68,41.66c-9.64,1.42-19.4,0.72-29.09,1.26c-21.76,0.12-43.52-4.39-63.41-13.19
		c-30.26-13.16-56-34.91-77.56-59.59c-16.21-18.65-30.16-39.22-41.97-60.92c-2.12-3.65-4-7.44-5.37-11.44
		c-10.38-25.31-19.61-51.12-26.77-77.53c-0.56-1.22-0.39-3.19-2-3.51c-9.43-3.37-18.41-8.93-24.4-17.1c-3.75-4.99-5.7-11-8.66-16.43
		c-2.55-4.86-5.72-9.4-9.56-13.33c-7.37-7.78-14.71-15.92-19.2-25.75c-1.72-3.61-2.18-7.65-3.9-11.25
		c-11.58-23-15.11-49.22-14.62-74.72C698.08,581.99,699.72,570.22,705.92,560.88 M1260.22,627.9c2.57,4.37,7.37-1.5,10.38,1.44
		c1.55,3.48,0.55,7.41-0.1,11c-1.95,7.82-3.65,16.05-8.65,22.61c-3.69,5.49-9.36,9-14.32,13.19c1.47,2.08,4.41,2.05,6.48,0.91
		c9.88-6.03,17.81-15.34,21.47-26.4c2.03-6.42,4.58-12.87,4.78-19.68c0.45-4.48-3.8-8.54-8.24-8
		C1267.76,623.31,1263.12,624.58,1260.22,627.9 M731.27,624.39c-4.61,1.69-6.26,7.15-5.97,11.64c1.31,14.56,7.64,29.19,19.32,38.37
		c2.45,1.82,5.06,4.74,8.45,3.63c1.57-0.51,4.06-0.82,3.98-2.98c-3.3-3.08-7.3-5.35-10.34-8.72c-5.86-5.66-9.03-13.42-10.86-21.22
		c-1.04-4.66-2.99-9.28-2.69-14.12c0.33-2.54,3.23-1.15,4.85-1.18c2.4,0.42,6.56-0.49,6.66-3.43
		C740.7,624.07,735.73,622.92,731.27,624.39 M957.22,785.28c-16.37,5.97-32.16,13.45-47.4,21.87c3.25,4.4,7.79,7.6,11.94,11.1
		c21.06,16.4,47.03,28.34,74.19,27.48c8.99-0.56,18.03,0.72,26.98-0.56c13.06-1.57,25.72-5.8,37.41-11.79
		c13.04-6.91,25.61-15.32,35.68-26.17c-9.17-5.08-18.59-9.71-28.12-14.07c-15.36-6.57-31.15-13.25-48-14.53
		c-6.14-0.6-12.5,0.92-16.98,5.33c-3.14-2.61-6.75-4.86-10.93-5.11C980.04,777.67,968.39,781.53,957.22,785.28z"/>
	<path fill="#603813" stroke="#603813" d="M1277.31,561.11c4.13,8.5,3.1,19.65-3.74,26.45c-2.51,2.72-6.12,3.87-9.11,5.89
		c-2.68,2.68-3.47,6.57-5.3,9.8c-2.68,5.19-8.34,8.43-14.1,8.73c-5.03,0.51-9.93-1.06-14.37-3.27c0.8-2.87,1.05-5.84,1.4-8.78
		c0.56-5.76,4.23-10.82,8.91-14.04c3.6-2.57,8.08-3.23,12.13-4.81C1263.08,577.39,1272.46,570.8,1277.31,561.11z"/>
	<path fill="#603813" stroke="#603813" d="M733.3,589.73c-8.24-6.32-10.43-18.85-5.57-27.86c5.83,11.19,17.38,18.07,29.21,21.4
		c7.01,1.82,13.24,7.13,15.34,14.18c0.86,3.87,0.76,7.92,1.96,11.74c-7.5,4.16-17.81,5.09-24.68-0.78
		c-4.63-3.56-5.24-9.84-8.76-14.19C738.55,592.33,735.59,591.57,733.3,589.73z"/>
	<path fill="#F7941E" stroke="#F7941E" d="M1260.22,627.9c2.9-3.32,7.54-4.59,11.8-4.93c4.44-0.54,8.69,3.52,8.24,8
		c-0.2,6.81-2.75,13.26-4.78,19.68c-3.66,11.06-11.59,20.37-21.47,26.4c-2.07,1.14-5.01,1.17-6.48-0.91
		c4.96-4.19,10.63-7.7,14.32-13.19c5-6.56,6.7-14.79,8.65-22.61c0.65-3.59,1.65-7.52,0.1-11
		C1267.59,626.4,1262.79,632.27,1260.22,627.9z"/>
	<path fill="#F7941E" stroke="#F7941E" d="M731.27,624.39c4.46-1.47,9.43-0.32,13.4,1.99c-0.1,2.94-4.26,3.85-6.66,3.43
		c-1.62,0.03-4.52-1.36-4.85,1.18c-0.3,4.84,1.65,9.46,2.69,14.12c1.83,7.8,5,15.56,10.86,21.22c3.04,3.37,7.04,5.64,10.34,8.72
		c0.08,2.16-2.41,2.47-3.98,2.98c-3.39,1.11-6-1.81-8.45-3.63c-11.68-9.18-18.01-23.81-19.32-38.37
		C725.01,631.54,726.66,626.08,731.27,624.39z"/>
	<path fill="#F7941E" stroke="#F7941E" d="M957.22,785.28c11.17-3.75,22.82-7.61,34.77-6.45c4.18,0.25,7.79,2.5,10.93,5.11
		c4.48-4.41,10.84-5.93,16.98-5.33c16.85,1.28,32.64,7.96,48,14.53c9.53,4.36,18.95,8.99,28.12,14.07
		c-10.07,10.85-22.64,19.26-35.68,26.17c-11.69,5.99-24.35,10.22-37.41,11.79c-8.95,1.28-17.99,0-26.98,0.56
		c-27.16,0.86-53.13-11.08-74.19-27.48c-4.15-3.5-8.69-6.7-11.94-11.1C925.06,798.73,940.85,791.25,957.22,785.28z"/>
	<path fill="#F7941E" stroke="#F7941E" d="M1186.56,848.58c3.24-5.47,5.6-11.41,9.1-16.73c-4.01,25.39-13.7,49.7-27.18,71.53
		c-16.99,27.22-39.81,50.48-65.39,69.71c-29.83,22.43-63.11,40.21-98.19,52.91c-2.71,1.24-5.67,0.58-8.3-0.5
		c-44.44-16.51-86.32-40.78-121.2-73.05c-25.93-24.25-47.44-53.88-59.32-87.53c-2.88-7.37-4.28-15.21-7.21-22.55
		c-0.13-3.51-0.75-6.98-1.4-10.41l1.23,0.62c1.37,4,3.25,7.79,5.37,11.44c11.81,21.7,25.76,42.27,41.97,60.92
		c21.56,24.68,47.3,46.43,77.56,59.59c19.89,8.8,41.65,13.31,63.41,13.19c9.69-0.54,19.45,0.16,29.09-1.26
		c33.65-4.04,64.96-20,90.68-41.66C1145.31,910.89,1168.26,880.87,1186.56,848.58z"/>
	<path fill="#25AAE1" stroke="#25AAE1" d="M753.49,1053.94c17.68-37.83,36.36-75.19,55.37-112.36c0.28,10.31,1.71,20.56,3.88,30.64
		c5.45,28.17,14.78,55.43,25.08,82.16c15.53,39.61,34.29,77.89,54.58,115.27c3.59,7.01,7.99,13.6,11.13,20.83
		c-13.95,11.67-27.27,24.11-40.88,36.18c-28.72,26.04-57.62,51.92-85.15,79.22c-6.97,6.91-14.08,13.76-19.81,21.77
		c-6.42-19.71-11.26-39.9-16.33-59.99c-7.46-31.25-14.41-62.73-17.89-94.72c-1.04-12.01-2.31-24.29,0.18-36.21
		c1.44-5.45,0.53-11.26,2.57-16.59C733.4,1097.33,743.66,1075.68,753.49,1053.94z"/>
	<path fill="#25AAE1" stroke="#25AAE1" d="M1196.14,941.38c19.17,37.09,37.65,74.54,55.49,112.29
		c8.27,18.48,16.85,36.86,23.76,55.91c2.04,6.08,4.63,12.16,4.91,18.67c0,6.01,2.27,11.74,2.27,17.77c0.66,18.8-2.26,37.49-5.24,56
		c-3.85,22.52-8.82,44.83-14.2,67.03c-4.86,19.46-9.78,38.93-15.77,58.08c-6.02-7.83-12.85-14.97-19.92-21.84
		c-29.04-28.58-59.35-55.82-89.59-83.12c-12.13-10.64-23.79-21.84-36.32-32c0.43-2.67,2.13-4.85,3.37-7.18
		c19.57-34.97,37.75-70.76,53.44-107.66c14.72-34.95,27.85-70.88,34.81-108.27C1194.74,958.58,1195.8,950,1196.14,941.38z"/>
	<path fill="#0F75BC" stroke="#0F75BC" d="M553.02,1169.11c66.08-39.66,132.95-78.01,200.47-115.17
		c-9.83,21.74-20.09,43.39-27.27,66.2c-2.04,5.33-1.13,11.14-2.57,16.59c-2.49,11.92-1.22,24.2-0.18,36.21
		c3.48,31.99,10.43,63.47,17.89,94.72c5.07,20.09,9.91,40.28,16.33,59.99c5.73-8.01,12.84-14.86,19.81-21.77
		c15.38,22.44,30.61,45,46.22,67.28c26.69-60.86,53.36-121.72,79.81-182.68c2.08,3.54,5.93,5.55,8.21,8.96
		c2.77,4.11,6.8,7.08,10.21,10.63c11.2,11.17,22.38,22.49,31.78,35.26c3.22,4.64,6.86,9.65,6.55,15.6c1.9,0.93,4.01,1.9,4.86,4.03
		c2.58,4.63,1.03,10.05,1.71,15.02c3.35,7.68,9.21,14.18,16.14,18.86c5.72,4.09,12.58,5.86,19.04,8.38
		c5.56-2.65,11.74-3.88,17.05-7.1c8.36-4.87,15.62-12.22,19.21-21.3c0.24-4.96-0.9-10.32,1.72-14.83c0.84-1.93,2.9-2.61,4.66-3.42
		c-0.39-6.42,3.78-11.67,7.21-16.66c10.18-13.65,22.38-25.62,34.44-37.59c2.06-1.98,4.32-3.81,5.93-6.2
		c2.59-3.77,6.38-6.45,9.28-9.95c24.2,56.08,48.89,111.95,73.27,167.95c2.23,4.78,3.93,9.82,6.67,14.37
		c15.34-22.39,30.79-44.71,45.97-67.2c7.07,6.87,13.9,14.01,19.92,21.84c5.99-19.15,10.91-38.62,15.77-58.08
		c5.38-22.2,10.35-44.51,14.2-67.03c2.98-18.51,5.9-37.2,5.24-56c0-6.03-2.27-11.76-2.27-17.77c-0.28-6.51-2.87-12.59-4.91-18.67
		c-6.91-19.05-15.49-37.43-23.76-55.91c2.17,1.02,4.32,2.11,6.43,3.3c70.37,39.13,140.3,79.07,209.12,120.89
		c30.05,18.36,59.95,37.01,89.02,56.9c16.03,11.13,32.1,22.35,46.58,35.48c5.08,5.04,11.12,10.06,12.79,17.37
		c1.66,7.59,2.3,15.35,2.99,23.07c2.71,35.01,3.33,70.14,4.11,105.24c0.86,52.68,1.19,105.37,1.08,158.07
		c-0.15,19.33,0.34,38.68-0.31,58.01H381.25c0.03-88.68-0.49-177.37,2.29-266.01c0.84-22.36,1.56-44.76,4.05-67.01
		c0.97-6.41,1.22-13.51,5.59-18.71c5.49-6.83,12.19-12.55,18.93-18.1c13.2-10.64,27.08-20.41,41.09-29.95
		C485.81,1210.17,519.33,1189.48,553.02,1169.11z"/>
	<path fill="#283891" stroke="#283891" d="M862.65,1226.66c13.61-12.07,26.93-24.51,40.88-36.18
		c-26.45,60.96-53.12,121.82-79.81,182.68c-15.61-22.28-30.84-44.84-46.22-67.28C805.03,1278.58,833.93,1252.7,862.65,1226.66z"/>
	<path fill="#283891" stroke="#283891" d="M1101.53,1190.17c12.53,10.16,24.19,21.36,36.32,32c30.24,27.3,60.55,54.54,89.59,83.12
		c-15.18,22.49-30.63,44.81-45.97,67.2c-2.74-4.55-4.44-9.59-6.67-14.37C1150.42,1302.12,1125.73,1246.25,1101.53,1190.17z"/>
</g>
</svg>
